# xmcd CD database file
#
# Track frame offsets:
#	150
#	16813
#	36975
#	53638
#
# Disc length: 984 seconds
#
# Revision: 0
# Processed by: cddbd v1.5.1PL2 Copyright (c) Steve Scherf et al.
# Submitted via: CDex 1.60beta1
#
DISCID=2703d604
DTITLE=meg - ROCKSTAR
DYEAR=2006
DGENRE=Pop
TTITLE0=ROCKSTAR
TTITLE1=ROCKSTAR <slow lab ver>
TTITLE2=ROCKSTAR -inst
TTITLE3=ROCKSTAR <slow lab ver> -inst
EXTD=YEAR: 2006
EXTT0=
EXTT1=
EXTT2=
EXTT3=
PLAYORDER=
